<mxfile host="Electron" modified="2024-05-21T08:29:07.778Z" agent="Mozilla/5.0 (Windows NT 10.0; Win64; x64) AppleWebKit/537.36 (KHTML, like Gecko) draw.io/24.2.5 Chrome/120.0.6099.109 Electron/28.1.0 Safari/537.36" etag="eNCmFv6V3Z-UNss9GSTn" version="24.2.5" type="device">
  <diagram name="페이지-1" id="cUQYxgOoF2Ai73uK9h_P">
    <mxGraphModel dx="1194" dy="657" grid="1" gridSize="10" guides="1" tooltips="1" connect="1" arrows="1" fold="1" page="1" pageScale="1" pageWidth="827" pageHeight="1169" math="0" shadow="0">
      <root>
        <mxCell id="0" />
        <mxCell id="1" parent="0" />
        <mxCell id="I7trXLFPAac0Yew11KJu-3" value="" style="edgeStyle=orthogonalEdgeStyle;rounded=0;orthogonalLoop=1;jettySize=auto;html=1;" edge="1" parent="1" source="I7trXLFPAac0Yew11KJu-1" target="I7trXLFPAac0Yew11KJu-2">
          <mxGeometry relative="1" as="geometry" />
        </mxCell>
        <mxCell id="I7trXLFPAac0Yew11KJu-1" value="start" style="rounded=1;whiteSpace=wrap;html=1;" vertex="1" parent="1">
          <mxGeometry x="360" y="30" width="120" height="60" as="geometry" />
        </mxCell>
        <mxCell id="I7trXLFPAac0Yew11KJu-6" value="" style="edgeStyle=orthogonalEdgeStyle;rounded=0;orthogonalLoop=1;jettySize=auto;html=1;" edge="1" parent="1" source="I7trXLFPAac0Yew11KJu-2" target="I7trXLFPAac0Yew11KJu-4">
          <mxGeometry relative="1" as="geometry" />
        </mxCell>
        <mxCell id="I7trXLFPAac0Yew11KJu-2" value="open file &quot;access.txt&quot;" style="rounded=0;whiteSpace=wrap;html=1;" vertex="1" parent="1">
          <mxGeometry x="360" y="110" width="120" height="60" as="geometry" />
        </mxCell>
        <mxCell id="I7trXLFPAac0Yew11KJu-8" value="" style="edgeStyle=orthogonalEdgeStyle;rounded=0;orthogonalLoop=1;jettySize=auto;html=1;" edge="1" parent="1" source="I7trXLFPAac0Yew11KJu-4" target="I7trXLFPAac0Yew11KJu-7">
          <mxGeometry relative="1" as="geometry" />
        </mxCell>
        <mxCell id="I7trXLFPAac0Yew11KJu-4" value="convert userIP&lt;div&gt;to 32 bits integer&lt;/div&gt;&lt;div&gt;named userIPINT&lt;/div&gt;" style="rounded=0;whiteSpace=wrap;html=1;" vertex="1" parent="1">
          <mxGeometry x="360" y="190" width="120" height="60" as="geometry" />
        </mxCell>
        <mxCell id="I7trXLFPAac0Yew11KJu-10" value="" style="edgeStyle=orthogonalEdgeStyle;rounded=0;orthogonalLoop=1;jettySize=auto;html=1;" edge="1" parent="1" source="I7trXLFPAac0Yew11KJu-7" target="I7trXLFPAac0Yew11KJu-9">
          <mxGeometry relative="1" as="geometry" />
        </mxCell>
        <mxCell id="I7trXLFPAac0Yew11KJu-20" value="no" style="edgeLabel;html=1;align=center;verticalAlign=middle;resizable=0;points=[];" vertex="1" connectable="0" parent="I7trXLFPAac0Yew11KJu-10">
          <mxGeometry x="0.2" relative="1" as="geometry">
            <mxPoint as="offset" />
          </mxGeometry>
        </mxCell>
        <mxCell id="I7trXLFPAac0Yew11KJu-36" style="edgeStyle=orthogonalEdgeStyle;rounded=0;orthogonalLoop=1;jettySize=auto;html=1;entryX=0;entryY=0.5;entryDx=0;entryDy=0;" edge="1" parent="1" source="I7trXLFPAac0Yew11KJu-7" target="I7trXLFPAac0Yew11KJu-23">
          <mxGeometry relative="1" as="geometry">
            <Array as="points">
              <mxPoint x="320" y="320" />
              <mxPoint x="320" y="700" />
            </Array>
          </mxGeometry>
        </mxCell>
        <mxCell id="I7trXLFPAac0Yew11KJu-37" value="yes" style="edgeLabel;html=1;align=center;verticalAlign=middle;resizable=0;points=[];" vertex="1" connectable="0" parent="I7trXLFPAac0Yew11KJu-36">
          <mxGeometry x="-0.913" y="-1" relative="1" as="geometry">
            <mxPoint as="offset" />
          </mxGeometry>
        </mxCell>
        <mxCell id="I7trXLFPAac0Yew11KJu-7" value="end of file?" style="rhombus;whiteSpace=wrap;html=1;" vertex="1" parent="1">
          <mxGeometry x="360" y="280" width="120" height="80" as="geometry" />
        </mxCell>
        <mxCell id="I7trXLFPAac0Yew11KJu-12" value="" style="edgeStyle=orthogonalEdgeStyle;rounded=0;orthogonalLoop=1;jettySize=auto;html=1;" edge="1" parent="1" source="I7trXLFPAac0Yew11KJu-9" target="I7trXLFPAac0Yew11KJu-11">
          <mxGeometry relative="1" as="geometry" />
        </mxCell>
        <mxCell id="I7trXLFPAac0Yew11KJu-9" value="read line from file" style="rounded=0;whiteSpace=wrap;html=1;" vertex="1" parent="1">
          <mxGeometry x="360" y="390" width="120" height="60" as="geometry" />
        </mxCell>
        <mxCell id="I7trXLFPAac0Yew11KJu-14" value="" style="edgeStyle=orthogonalEdgeStyle;rounded=0;orthogonalLoop=1;jettySize=auto;html=1;" edge="1" parent="1" source="I7trXLFPAac0Yew11KJu-11" target="I7trXLFPAac0Yew11KJu-13">
          <mxGeometry relative="1" as="geometry" />
        </mxCell>
        <mxCell id="I7trXLFPAac0Yew11KJu-11" value="convert checkIP&lt;div&gt;to 32 bits integer&lt;/div&gt;&lt;div&gt;named checkIPINT&lt;/div&gt;" style="rounded=0;whiteSpace=wrap;html=1;" vertex="1" parent="1">
          <mxGeometry x="360" y="470" width="120" height="60" as="geometry" />
        </mxCell>
        <mxCell id="I7trXLFPAac0Yew11KJu-16" style="edgeStyle=orthogonalEdgeStyle;rounded=0;orthogonalLoop=1;jettySize=auto;html=1;entryX=1;entryY=0.5;entryDx=0;entryDy=0;" edge="1" parent="1" source="I7trXLFPAac0Yew11KJu-13" target="I7trXLFPAac0Yew11KJu-7">
          <mxGeometry relative="1" as="geometry">
            <Array as="points">
              <mxPoint x="520" y="600" />
              <mxPoint x="520" y="320" />
            </Array>
          </mxGeometry>
        </mxCell>
        <mxCell id="I7trXLFPAac0Yew11KJu-17" value="no" style="edgeLabel;html=1;align=center;verticalAlign=middle;resizable=0;points=[];" vertex="1" connectable="0" parent="I7trXLFPAac0Yew11KJu-16">
          <mxGeometry x="-0.9187" y="2" relative="1" as="geometry">
            <mxPoint as="offset" />
          </mxGeometry>
        </mxCell>
        <mxCell id="I7trXLFPAac0Yew11KJu-24" value="" style="edgeStyle=orthogonalEdgeStyle;rounded=0;orthogonalLoop=1;jettySize=auto;html=1;" edge="1" parent="1" source="I7trXLFPAac0Yew11KJu-13" target="I7trXLFPAac0Yew11KJu-23">
          <mxGeometry relative="1" as="geometry" />
        </mxCell>
        <mxCell id="I7trXLFPAac0Yew11KJu-35" value="yes" style="edgeLabel;html=1;align=center;verticalAlign=middle;resizable=0;points=[];" vertex="1" connectable="0" parent="I7trXLFPAac0Yew11KJu-24">
          <mxGeometry x="-0.62" y="-1" relative="1" as="geometry">
            <mxPoint as="offset" />
          </mxGeometry>
        </mxCell>
        <mxCell id="I7trXLFPAac0Yew11KJu-13" value="userIPINT&lt;div&gt;satisfy&lt;br&gt;&lt;div&gt;checkIPINT&lt;/div&gt;&lt;/div&gt;" style="rhombus;whiteSpace=wrap;html=1;" vertex="1" parent="1">
          <mxGeometry x="360" y="560" width="120" height="80" as="geometry" />
        </mxCell>
        <mxCell id="I7trXLFPAac0Yew11KJu-28" value="" style="edgeStyle=orthogonalEdgeStyle;rounded=0;orthogonalLoop=1;jettySize=auto;html=1;" edge="1" parent="1" source="I7trXLFPAac0Yew11KJu-22" target="I7trXLFPAac0Yew11KJu-27">
          <mxGeometry relative="1" as="geometry" />
        </mxCell>
        <mxCell id="I7trXLFPAac0Yew11KJu-29" value="yes" style="edgeLabel;html=1;align=center;verticalAlign=middle;resizable=0;points=[];" vertex="1" connectable="0" parent="I7trXLFPAac0Yew11KJu-28">
          <mxGeometry x="-0.62" y="-2" relative="1" as="geometry">
            <mxPoint as="offset" />
          </mxGeometry>
        </mxCell>
        <mxCell id="I7trXLFPAac0Yew11KJu-31" value="" style="edgeStyle=orthogonalEdgeStyle;rounded=0;orthogonalLoop=1;jettySize=auto;html=1;" edge="1" parent="1" source="I7trXLFPAac0Yew11KJu-22" target="I7trXLFPAac0Yew11KJu-30">
          <mxGeometry relative="1" as="geometry" />
        </mxCell>
        <mxCell id="I7trXLFPAac0Yew11KJu-32" value="no" style="edgeLabel;html=1;align=center;verticalAlign=middle;resizable=0;points=[];" vertex="1" connectable="0" parent="I7trXLFPAac0Yew11KJu-31">
          <mxGeometry x="-0.4" y="-1" relative="1" as="geometry">
            <mxPoint y="1" as="offset" />
          </mxGeometry>
        </mxCell>
        <mxCell id="I7trXLFPAac0Yew11KJu-22" value="end of file?" style="rhombus;whiteSpace=wrap;html=1;" vertex="1" parent="1">
          <mxGeometry x="360" y="760" width="120" height="80" as="geometry" />
        </mxCell>
        <mxCell id="I7trXLFPAac0Yew11KJu-25" value="" style="edgeStyle=orthogonalEdgeStyle;rounded=0;orthogonalLoop=1;jettySize=auto;html=1;" edge="1" parent="1" source="I7trXLFPAac0Yew11KJu-23" target="I7trXLFPAac0Yew11KJu-22">
          <mxGeometry relative="1" as="geometry" />
        </mxCell>
        <mxCell id="I7trXLFPAac0Yew11KJu-23" value="close file" style="rounded=0;whiteSpace=wrap;html=1;" vertex="1" parent="1">
          <mxGeometry x="360" y="670" width="120" height="60" as="geometry" />
        </mxCell>
        <mxCell id="I7trXLFPAac0Yew11KJu-27" value="return 0" style="rounded=0;whiteSpace=wrap;html=1;" vertex="1" parent="1">
          <mxGeometry x="360" y="870" width="120" height="60" as="geometry" />
        </mxCell>
        <mxCell id="I7trXLFPAac0Yew11KJu-30" value="return 1" style="rounded=0;whiteSpace=wrap;html=1;" vertex="1" parent="1">
          <mxGeometry x="520" y="770" width="120" height="60" as="geometry" />
        </mxCell>
      </root>
    </mxGraphModel>
  </diagram>
</mxfile>
